<svg width="402" height="745" viewBox="0 0 402 745" fill="none" xmlns="http://www.w3.org/2000/svg">
<path d="M175.025 744.799C128.849 744.799 91.6091 707.559 91.6091 661.382H154.171C154.171 672.552 163.107 681.493 174.282 681.493C185.452 681.493 194.393 672.557 194.393 661.382V627.868C84.9072 612.968 0 517.633 0 403.683C0 289.729 84.9072 195.139 195.138 179.498V102.784C195.143 46.1763 241.319 0 297.921 0C354.523 0 401.449 46.1763 401.449 103.527C401.449 176.516 344.845 228.651 257.702 239.081V313.561C331.439 328.455 386.551 393.257 386.551 470.714C386.551 548.17 331.435 612.97 257.702 627.866V662.13C257.702 707.557 220.462 744.797 175.029 744.797L175.025 744.799ZM195.136 243.548C163.113 249.507 134.06 265.145 110.973 288.239C80.4344 318.777 63.3053 360.485 63.3053 403.684C63.3053 483.381 120.656 549.665 195.88 563.816V492.313C157.896 480.395 130.336 445.389 130.336 402.938C130.336 361.231 157.892 325.482 195.88 313.563L195.136 243.548ZM257.698 377.612V561.578C296.429 548.174 323.985 512.42 323.985 469.221C323.985 427.514 296.429 391.016 257.698 377.612ZM297.915 62.5619C275.569 62.5619 257.698 80.4384 257.698 102.778V175.024C300.897 168.322 338.137 147.468 338.137 102.778C338.879 81.1819 320.26 62.5619 297.915 62.5619Z" fill="white"/>
</svg>
